<svg width="165" height="165" viewBox="0 0 165 165" fill="none" xmlns="http://www.w3.org/2000/svg">
<path d="M0 82.5C0 36.9365 36.9365 0 82.5 0C128.063 0 165 36.9365 165 82.5C165 128.063 128.063 165 82.5 165C36.9365 165 0 128.063 0 82.5Z" fill="#6102D5"/>
<path d="M44.0182 70.9929L78.4292 36.994C81.1133 34.3353 85.4766 34.3353 88.1606 36.994L122.572 70.9929C125.263 73.6516 125.263 77.9559 122.572 80.6078C119.881 83.2597 115.524 83.2665 112.84 80.6078L90.1771 58.2161V123.399C90.1771 127.152 87.0939 130.199 83.2949 130.199C79.4959 130.199 76.4127 127.152 76.4127 123.399V58.2161L53.7496 80.6078C52.4076 81.9338 50.6458 82.6002 48.8839 82.6002C47.1221 82.6002 45.3602 81.9338 44.0182 80.6078C41.3273 77.9491 41.3273 73.6448 44.0182 70.9929Z" fill="white"/>
</svg>
