<svg width="17" height="19" viewBox="0 0 17 19" fill="none" xmlns="http://www.w3.org/2000/svg">
<path d="M5.64647 6.77576H7.90506V9.03435H5.64647V6.77576ZM9.03435 6.77576H11.2929V9.03435H9.03435V6.77576ZM12.4222 6.77576H14.6808V9.03435H12.4222V6.77576ZM2.25859 13.5515H4.51718V15.8101H2.25859V13.5515ZM5.64647 13.5515H7.90506V15.8101H5.64647V13.5515ZM9.03435 13.5515H11.2929V15.8101H9.03435V13.5515ZM5.64647 10.1636H7.90506V12.4222H5.64647V10.1636ZM9.03435 10.1636H11.2929V12.4222H9.03435V10.1636ZM12.4222 10.1636H14.6808V12.4222H12.4222V10.1636ZM2.25859 10.1636H4.51718V12.4222H2.25859V10.1636ZM14.6808 0V1.12929H12.4222V0H4.51718V1.12929H2.25859V0H0V18.0687H16.9394V0H14.6808ZM15.8101 16.9394H1.12929V4.51718H15.8101V16.9394Z" fill="black"/>
</svg>
