<svg width="56" height="198" viewBox="0 0 56 198" fill="none" xmlns="http://www.w3.org/2000/svg">
<path d="M10.1818 20.4444C15.8051 20.4444 20.3636 15.8678 20.3636 10.2222C20.3636 4.57664 15.8051 0 10.1818 0C4.55855 0 0 4.57664 0 10.2222C0 15.8678 4.55855 20.4444 10.1818 20.4444Z" fill="#CD113B"/>
<path d="M45.8182 20.4444C51.4416 20.4444 56 15.8678 56 10.2222C56 4.57664 51.4416 0 45.8182 0C40.1948 0 35.6364 4.57664 35.6364 10.2222C35.6364 15.8678 40.1948 20.4444 45.8182 20.4444Z" fill="#CD113B"/>
<path d="M20.3636 46C20.3636 51.6457 15.8051 56.2222 10.1818 56.2222C4.55855 56.2222 0 51.6457 0 46C0 40.3543 4.55855 35.7778 10.1818 35.7778C15.8051 35.7778 20.3636 40.3543 20.3636 46Z" fill="#CD113B"/>
<path d="M45.8182 56.2222C51.4416 56.2222 56 51.6457 56 46C56 40.3543 51.4416 35.7778 45.8182 35.7778C40.1948 35.7778 35.6364 40.3543 35.6364 46C35.6364 51.6457 40.1948 56.2222 45.8182 56.2222Z" fill="#CD113B"/>
<path d="M20.3636 81.7778C20.3636 87.4235 15.8051 92 10.1818 92C4.55855 92 0 87.4235 0 81.7778C0 76.132 4.55855 71.5556 10.1818 71.5556C15.8051 71.5556 20.3636 76.132 20.3636 81.7778Z" fill="#CD113B"/>
<path d="M45.8182 92C51.4416 92 56 87.4235 56 81.7778C56 76.132 51.4416 71.5556 45.8182 71.5556C40.1948 71.5556 35.6364 76.132 35.6364 81.7778C35.6364 87.4235 40.1948 92 45.8182 92Z" fill="#CD113B"/>
<path d="M10.1818 126.444C15.8051 126.444 20.3636 121.868 20.3636 116.222C20.3636 110.577 15.8051 106 10.1818 106C4.55855 106 0 110.577 0 116.222C0 121.868 4.55855 126.444 10.1818 126.444Z" fill="#CD113B"/>
<path d="M45.8182 126.444C51.4416 126.444 56 121.868 56 116.222C56 110.577 51.4416 106 45.8182 106C40.1948 106 35.6364 110.577 35.6364 116.222C35.6364 121.868 40.1948 126.444 45.8182 126.444Z" fill="#CD113B"/>
<path d="M20.3636 152C20.3636 157.646 15.8051 162.222 10.1818 162.222C4.55855 162.222 0 157.646 0 152C0 146.354 4.55855 141.778 10.1818 141.778C15.8051 141.778 20.3636 146.354 20.3636 152Z" fill="#CD113B"/>
<path d="M45.8182 162.222C51.4416 162.222 56 157.646 56 152C56 146.354 51.4416 141.778 45.8182 141.778C40.1948 141.778 35.6364 146.354 35.6364 152C35.6364 157.646 40.1948 162.222 45.8182 162.222Z" fill="#CD113B"/>
<path d="M20.3636 187.778C20.3636 193.424 15.8051 198 10.1818 198C4.55855 198 0 193.424 0 187.778C0 182.132 4.55855 177.556 10.1818 177.556C15.8051 177.556 20.3636 182.132 20.3636 187.778Z" fill="#CD113B"/>
<path d="M45.8182 198C51.4416 198 56 193.424 56 187.778C56 182.132 51.4416 177.556 45.8182 177.556C40.1948 177.556 35.6364 182.132 35.6364 187.778C35.6364 193.424 40.1948 198 45.8182 198Z" fill="#CD113B"/>
</svg>
