<svg width="21" height="16" viewBox="0 0 21 16" fill="none" xmlns="http://www.w3.org/2000/svg">
<path fill-rule="evenodd" clip-rule="evenodd" d="M4.90067 11.4067C3.45005 10.1603 2.41394 8.73572 1.92786 7.99991C2.41394 7.2641 3.45005 5.83951 4.90067 4.59318C6.39834 3.30643 8.2476 2.28562 10.3278 2.28562C12.4081 2.28562 14.2575 3.30643 15.7551 4.59318C17.2058 5.83951 18.2418 7.2641 18.7279 7.99991C18.2418 8.73572 17.2058 10.1603 15.7551 11.4067C14.2575 12.6934 12.4081 13.7142 10.3278 13.7142C8.2476 13.7142 6.39834 12.6934 4.90067 11.4067ZM10.3278 0.380859C7.61122 0.380859 5.33467 1.70907 3.65939 3.14843C1.97802 4.59301 0.811245 6.22619 0.293436 7.01876C-0.0978119 7.61753 -0.0978119 8.38229 0.293436 8.98105C0.811245 9.77362 1.97802 11.4068 3.65939 12.8514C5.33467 14.2908 7.61122 15.619 10.3278 15.619C13.0445 15.619 15.3211 14.2908 16.9964 12.8514C18.6778 11.4068 19.8445 9.77362 20.3623 8.98105C20.7536 8.38229 20.7536 7.61753 20.3623 7.01876C19.8445 6.22619 18.6778 4.59301 16.9964 3.14843C15.3211 1.70907 13.0445 0.380859 10.3278 0.380859ZM8.42308 7.99991C8.42308 6.94791 9.27594 6.09515 10.3278 6.09515C11.3798 6.09515 12.2326 6.94791 12.2326 7.99991C12.2326 9.05191 11.3798 9.90467 10.3278 9.90467C9.27594 9.90467 8.42308 9.05191 8.42308 7.99991ZM10.3278 4.19038C8.22394 4.19038 6.51836 5.89596 6.51836 7.99991C6.51836 10.1038 8.22394 11.8094 10.3278 11.8094C12.4318 11.8094 14.1374 10.1038 14.1374 7.99991C14.1374 5.89596 12.4318 4.19038 10.3278 4.19038Z" fill="#555555" stroke="black" stroke-width="0.000457143"/>
</svg>
