<svg width="100" height="100" viewBox="0 0 100 100" fill="none" xmlns="http://www.w3.org/2000/svg">
<path d="M90.625 0H9.375C4.21875 0 0 4.21875 0 9.375V90.625C0 95.7812 4.21875 100 9.375 100H90.625C95.7812 100 100 95.7812 100 90.625V9.375C100 4.21875 95.7812 0 90.625 0ZM68.75 15.625C68.75 13.9062 70.1562 12.5 71.875 12.5H84.375C86.0938 12.5 87.5 13.9062 87.5 15.625V28.125C87.5 29.8438 86.0938 31.25 84.375 31.25H71.875C70.1562 31.25 68.75 29.8438 68.75 28.125V15.625ZM50 31.25C60.35 31.25 68.75 39.65 68.75 50C68.75 60.35 60.35 68.75 50 68.75C39.65 68.75 31.25 60.35 31.25 50C31.25 39.65 39.65 31.25 50 31.25ZM87.5 84.375C87.5 86.0938 86.0938 87.5 84.375 87.5H15.625C13.9062 87.5 12.5 86.0938 12.5 84.375V46.8388C12.5 45.1329 13.8829 43.75 15.5888 43.75C17.5441 43.75 19.0007 45.5476 18.8476 47.4968C18.7828 48.321 18.75 49.1557 18.75 50C18.75 67.2625 32.7313 81.25 50 81.25C67.2687 81.25 81.25 67.2625 81.25 50C81.25 49.1557 81.2172 48.321 81.1524 47.4968C80.9992 45.5476 82.4559 43.75 84.4112 43.75C86.1171 43.75 87.5 45.1329 87.5 46.8388V84.375Z" fill="white"/>
</svg>
